{"title":"Two_Hot_Asian_Lesbians","uid":5021116,"size":108199801,"categoryP":"porn","categoryS":"movie_clips","magnet":"?xt=urn:btih:45d1db3c801f3fbe460441959401df6cab38ef1d&amp;dn=Two_Hot_Asian_Lesbians&amp;tr=udp%3A%2F%2Ftracker.openbittorrent.com%3A80&amp;tr=udp%3A%2F%2Fopen.demonii.com%3A1337&amp;tr=udp%3A%2F%2Ftracker.coppersurfer.tk%3A6969&amp;tr=udp%3A%2F%2Fexodus.desync.com%3A6969","seeders":0,"leechers":1,"uploader":"sandokan89","files":-1,"time":1248464928,"description":"\n\n----------  Lesbian_sex_video  ------------\n\nVideo\nFormat                           : VP6  ----- Flash Video\nDuration                         : 27mn 21s\nBit rate                         : 471 Kbps\nWidth                            : 512 pixels\nHeight                           : 384 pixels\nDisplay aspect ratio             : 4/3\nFrame rate                       : 30.000 fps\nBits/(Pixel*Frame)               : 0.080\nStream size                      : 92.6 MiB (90%)\n\nAudio\nFormat                           : MPEG Audio\nFormat version                   : Version 2\nFormat profile                   : Layer 3\nDuration                         : 27mn 21s\nBit rate mode                    : Constant\nBit rate                         : 48.0 Kbps\nChannel(s)                       : 1 channel\nSampling rate                    : 22.05 KHz\nResolution                       : 16 bits\nStream size                      : 10.1 MiB (10%)","torrent":{"xt":"urn:btih:45d1db3c801f3fbe460441959401df6cab38ef1d","amp;dn":"Two_Hot_Asian_Lesbians","amp;tr":["udp%3A%2F%2Ftracker.openbittorrent.com%3A80","udp%3A%2F%2Fopen.demonii.com%3A1337","udp%3A%2F%2Ftracker.coppersurfer.tk%3A6969","udp%3A%2F%2Fexodus.desync.com%3A6969"],"infoHash":"45d1db3c801f3fbe460441959401df6cab38ef1d","infoHashBuffer":{"type":"Buffer","data":[69,209,219,60,128,31,63,190,70,4,65,149,148,1,223,108,171,56,239,29]},"announce":[],"urlList":[]}}